<?xml version="1.0" encoding="UTF-8"?>
<!-- Generator: Adobe Illustrator 26.2.1, SVG Export Plug-In . SVG Version: 6.00 Build 0)  -->
<svg enable-background="new 0 0 226 87.1" version="1.1" viewBox="0 0 226 87.1" xml:space="preserve" xmlns="http://www.w3.org/2000/svg" xmlnsSvg="http://www.w3.org/2000/svg">
<style type="text/css">
	.st0{fill:#00A096;}
</style>
<g fill="#fff">
	<path d="m78.1 63.6c-11.6 0-20-8.3-20-19.6s8.4-19.6 20.1-19.6c9.4 0 16.9 5.6 18.7 14.2h-7.3c-1.7-4.8-6.1-7.6-11.4-7.6-7.2 0-12.7 5.3-12.7 13s5.6 13.1 12.7 13.1c5.5 0 9.9-3 11.5-8.3h7.3c-1.8 9.1-9.3 14.8-18.9 14.8z"/>
	<path d="m127.7 49.1c0 0.8-0.1 1.5-0.2 2.2h-20.8c0.2 4 3.5 6.6 7.6 6.6 2.8 0 5-1.1 6.3-3.4h6.7c-1.8 5.7-7 9.2-13.5 9.2-9 0-13.7-6.8-13.7-14 0-7.3 4.9-14.1 13.9-14.1 8.1 0 13.7 5.6 13.7 13.5zm-6.6-2.2c-0.4-3.8-3.8-5.9-7.2-5.9-3.2 0-6.5 1.8-7.1 5.9h14.3z"/>
	<path d="m135.6 23.4c2.2 0 3.9 1.7 3.9 3.9 0 2.3-1.7 4-3.9 4-2.3 0-4-1.7-4-4s1.7-3.9 4-3.9zm-3.3 12.8h6.6v26.9h-6.6v-26.9z"/>
	<path d="m152.2 23.6v16c1.9-2.4 4.7-4 9.2-4 7.5 0 13.2 5.7 13.2 13.9 0 8.1-5.7 14.1-13.4 14.1-4.5 0-7.3-1.7-9.2-4l-0.7 3.4h-5.7v-39.4h6.6zm0 25.9c0 4.5 3.3 8.3 8 8.3 4.8 0 7.9-3.8 7.9-8.3 0-4.6-3.2-8.1-7.9-8.1s-8 3.5-8 8.1z"/>
	<path d="m188.2 63.6c-5.1 0-10-2.5-10-8 0-6.4 5.4-8.6 11.2-8.6h7.5v-1.2c0-3.2-2.6-4.7-5.6-4.7-2.4 0-5 1-5.5 3.5h-6.3c0.7-6.3 6.3-9.1 12.1-9.1 6.7 0 11.8 3.4 11.8 10.6v9.7c0 1.5 0.7 2.4 2.1 2.4 0.2 0 0.3 0 0.5-0.1v5.2c-0.8 0.1-1.6 0.2-2.4 0.2-2.9 0-5.6-0.9-6.3-4.3-2 3.1-5.4 4.4-9.1 4.4zm1.9-12.3c-2.6 0-5 0.9-5 3.6 0 2.5 2.2 3.5 4.6 3.5 4.2 0 7.1-2.6 7.2-6.3v-0.8h-6.8z"/>
	<path d="m216.8 23.6v39.5h-6.6v-39.5h6.6z"/>
	</g><path class="st0" d="m40.7 44.1c0-18 10.8-25.7 10.8-30.1 0-5.9-6.6-5.6-6.6-5.6-19.9 0-34.7 16.4-34.7 35.7 0 19.8 14.8 35.8 35.6 35.8 3.4 0 5.7-2.5 5.7-5.6 0-4.7-10.8-12.5-10.8-30.2z"/>

</svg>
